<?xml version="1.0" standalone="no"?>
<!DOCTYPE svg PUBLIC "-//W3C//DTD SVG 20010904//EN"
 "http://www.w3.org/TR/2001/REC-SVG-20010904/DTD/svg10.dtd">
<svg version="1.0" xmlns="http://www.w3.org/2000/svg"
 width="512.000000pt" height="512.000000pt" viewBox="0 0 512.000000 512.000000"
 preserveAspectRatio="xMidYMid meet">
<metadata>
Created by potrace 1.14, written by Peter Selinger 2001-2017
</metadata>
<g transform="translate(0.000000,512.000000) scale(0.100000,-0.100000)"
fill="#000000" stroke="none">
<path d="M4342 4312 c-700 -792 -1544 -1398 -2454 -1763 -240 -96 -555 -195
-720 -224 l-36 -7 -37 112 c-43 135 -98 383 -120 540 -19 137 -30 512 -18 625
l8 80 75 7 c41 4 208 12 370 18 704 26 1581 101 2090 180 l185 28 -1380 -1
c-1300 -2 -1383 -3 -1425 -20 -48 -19 -85 -48 -113 -87 -15 -22 -17 -65 -17
-494 0 -517 2 -544 67 -821 36 -157 85 -319 135 -445 50 -128 101 -230 114
-230 7 0 81 22 164 50 1122 371 2191 1163 2972 2202 115 153 268 379 256 378
-2 0 -54 -58 -116 -128z"/>
<path d="M4008 3590 c-4 -14 -12 -74 -18 -135 -6 -60 -22 -180 -36 -265 -154
-964 -580 -1716 -1214 -2142 -99 -67 -330 -188 -358 -188 -17 0 -156 70 -240
121 -217 133 -478 378 -626 586 -16 24 -33 43 -37 43 -3 0 -57 -24 -119 -53
l-112 -52 57 -80 c249 -348 599 -621 983 -770 l92 -35 113 44 c542 211 935
576 1197 1111 155 317 249 645 306 1077 15 117 32 661 22 733 -4 29 -4 30 -10
5z"/>
</g>
</svg>
